<mxfile host="app.diagrams.net" agent="Mozilla/5.0 (Windows NT 10.0; Win64; x64) AppleWebKit/537.36 (KHTML, like Gecko) Chrome/132.0.0.0 Safari/537.36 OPR/117.0.0.0" version="26.1.0">
  <diagram name="Página-1" id="zz4XxLORgdPkV_2R_ziB">
    <mxGraphModel dx="463" dy="1431" grid="1" gridSize="10" guides="1" tooltips="1" connect="1" arrows="1" fold="1" page="1" pageScale="1" pageWidth="827" pageHeight="1169" math="0" shadow="0">
      <root>
        <mxCell id="0" />
        <mxCell id="1" parent="0" />
        <mxCell id="eePxE5dwfhzt0HfO-NFH-1" value="inicio" style="ellipse;whiteSpace=wrap;html=1;" vertex="1" parent="1">
          <mxGeometry x="350" y="420" width="120" height="80" as="geometry" />
        </mxCell>
        <mxCell id="eePxE5dwfhzt0HfO-NFH-2" value="" style="endArrow=classic;html=1;rounded=0;exitX=1;exitY=0.5;exitDx=0;exitDy=0;" edge="1" parent="1" source="eePxE5dwfhzt0HfO-NFH-1" target="eePxE5dwfhzt0HfO-NFH-3">
          <mxGeometry width="50" height="50" relative="1" as="geometry">
            <mxPoint x="390" y="480" as="sourcePoint" />
            <mxPoint x="550" y="460" as="targetPoint" />
          </mxGeometry>
        </mxCell>
        <mxCell id="eePxE5dwfhzt0HfO-NFH-3" value="tela de listagem" style="rhombus;whiteSpace=wrap;html=1;" vertex="1" parent="1">
          <mxGeometry x="510" y="420" width="80" height="80" as="geometry" />
        </mxCell>
        <mxCell id="eePxE5dwfhzt0HfO-NFH-4" value="" style="endArrow=classic;html=1;rounded=0;exitX=0.5;exitY=0;exitDx=0;exitDy=0;" edge="1" parent="1" source="eePxE5dwfhzt0HfO-NFH-3" target="eePxE5dwfhzt0HfO-NFH-5">
          <mxGeometry width="50" height="50" relative="1" as="geometry">
            <mxPoint x="490" y="480" as="sourcePoint" />
            <mxPoint x="550" y="370" as="targetPoint" />
          </mxGeometry>
        </mxCell>
        <mxCell id="eePxE5dwfhzt0HfO-NFH-5" value="alterar status" style="rounded=0;whiteSpace=wrap;html=1;" vertex="1" parent="1">
          <mxGeometry x="490" y="340" width="120" height="60" as="geometry" />
        </mxCell>
        <mxCell id="eePxE5dwfhzt0HfO-NFH-6" value="" style="endArrow=classic;html=1;rounded=0;exitX=0.5;exitY=0;exitDx=0;exitDy=0;" edge="1" parent="1" source="eePxE5dwfhzt0HfO-NFH-5" target="eePxE5dwfhzt0HfO-NFH-7">
          <mxGeometry width="50" height="50" relative="1" as="geometry">
            <mxPoint x="490" y="350" as="sourcePoint" />
            <mxPoint x="550" y="300" as="targetPoint" />
          </mxGeometry>
        </mxCell>
        <mxCell id="eePxE5dwfhzt0HfO-NFH-7" value="fazer requisição com o comando de alterar status" style="rounded=0;whiteSpace=wrap;html=1;" vertex="1" parent="1">
          <mxGeometry x="490" y="260" width="120" height="60" as="geometry" />
        </mxCell>
        <mxCell id="eePxE5dwfhzt0HfO-NFH-8" value="" style="endArrow=classic;html=1;rounded=0;exitX=0.47;exitY=-0.009;exitDx=0;exitDy=0;exitPerimeter=0;" edge="1" parent="1" source="eePxE5dwfhzt0HfO-NFH-7" target="eePxE5dwfhzt0HfO-NFH-9">
          <mxGeometry width="50" height="50" relative="1" as="geometry">
            <mxPoint x="490" y="250" as="sourcePoint" />
            <mxPoint x="546" y="210" as="targetPoint" />
          </mxGeometry>
        </mxCell>
        <mxCell id="eePxE5dwfhzt0HfO-NFH-9" value="recebimento de valores e tratamento dos dados" style="rounded=0;whiteSpace=wrap;html=1;" vertex="1" parent="1">
          <mxGeometry x="486" y="180" width="120" height="60" as="geometry" />
        </mxCell>
        <mxCell id="eePxE5dwfhzt0HfO-NFH-10" value="" style="endArrow=classic;html=1;rounded=0;exitX=0.5;exitY=0;exitDx=0;exitDy=0;" edge="1" parent="1" source="eePxE5dwfhzt0HfO-NFH-9" target="eePxE5dwfhzt0HfO-NFH-11">
          <mxGeometry width="50" height="50" relative="1" as="geometry">
            <mxPoint x="530" y="260" as="sourcePoint" />
            <mxPoint x="546" y="130" as="targetPoint" />
          </mxGeometry>
        </mxCell>
        <mxCell id="eePxE5dwfhzt0HfO-NFH-11" value="criar comando sql" style="rounded=0;whiteSpace=wrap;html=1;" vertex="1" parent="1">
          <mxGeometry x="486" y="100" width="120" height="60" as="geometry" />
        </mxCell>
        <mxCell id="eePxE5dwfhzt0HfO-NFH-12" value="" style="endArrow=classic;html=1;rounded=0;exitX=0.5;exitY=0;exitDx=0;exitDy=0;entryX=0.5;entryY=1;entryDx=0;entryDy=0;" edge="1" parent="1" source="eePxE5dwfhzt0HfO-NFH-11" target="eePxE5dwfhzt0HfO-NFH-14">
          <mxGeometry width="50" height="50" relative="1" as="geometry">
            <mxPoint x="530" y="190" as="sourcePoint" />
            <mxPoint x="540" y="60" as="targetPoint" />
          </mxGeometry>
        </mxCell>
        <mxCell id="eePxE5dwfhzt0HfO-NFH-14" value="execução de comando&amp;nbsp;" style="rhombus;whiteSpace=wrap;html=1;" vertex="1" parent="1">
          <mxGeometry x="506" y="-10" width="80" height="80" as="geometry" />
        </mxCell>
        <mxCell id="eePxE5dwfhzt0HfO-NFH-15" value="" style="endArrow=classic;html=1;rounded=0;exitX=0.5;exitY=0;exitDx=0;exitDy=0;" edge="1" parent="1" source="eePxE5dwfhzt0HfO-NFH-14" target="eePxE5dwfhzt0HfO-NFH-16">
          <mxGeometry width="50" height="50" relative="1" as="geometry">
            <mxPoint x="480" y="70" as="sourcePoint" />
            <mxPoint x="410" y="10" as="targetPoint" />
            <Array as="points">
              <mxPoint x="546" y="-50" />
              <mxPoint x="410" y="-50" />
            </Array>
          </mxGeometry>
        </mxCell>
        <mxCell id="eePxE5dwfhzt0HfO-NFH-16" value="realize o cadastro e informe que o cadastro foi realizado" style="rounded=0;whiteSpace=wrap;html=1;" vertex="1" parent="1">
          <mxGeometry x="350" y="-20" width="120" height="60" as="geometry" />
        </mxCell>
        <mxCell id="eePxE5dwfhzt0HfO-NFH-17" value="Sim" style="text;strokeColor=none;align=center;fillColor=none;html=1;verticalAlign=middle;whiteSpace=wrap;rounded=0;" vertex="1" parent="1">
          <mxGeometry x="446" y="-50" width="60" height="30" as="geometry" />
        </mxCell>
        <mxCell id="eePxE5dwfhzt0HfO-NFH-18" value="" style="endArrow=classic;html=1;rounded=0;exitX=1;exitY=0.5;exitDx=0;exitDy=0;entryX=0.472;entryY=1.006;entryDx=0;entryDy=0;entryPerimeter=0;" edge="1" parent="1" source="eePxE5dwfhzt0HfO-NFH-14" target="eePxE5dwfhzt0HfO-NFH-19">
          <mxGeometry width="50" height="50" relative="1" as="geometry">
            <mxPoint x="540" as="sourcePoint" />
            <mxPoint x="590" y="-50" as="targetPoint" />
          </mxGeometry>
        </mxCell>
        <mxCell id="eePxE5dwfhzt0HfO-NFH-19" value="passo mensagem de erro" style="rounded=0;whiteSpace=wrap;html=1;" vertex="1" parent="1">
          <mxGeometry x="530" y="-130" width="120" height="60" as="geometry" />
        </mxCell>
        <mxCell id="eePxE5dwfhzt0HfO-NFH-20" value="" style="endArrow=classic;html=1;rounded=0;exitX=0;exitY=0.5;exitDx=0;exitDy=0;entryX=0.178;entryY=0.349;entryDx=0;entryDy=0;entryPerimeter=0;" edge="1" parent="1" source="eePxE5dwfhzt0HfO-NFH-19" target="eePxE5dwfhzt0HfO-NFH-3">
          <mxGeometry width="50" height="50" relative="1" as="geometry">
            <mxPoint x="550" y="-10" as="sourcePoint" />
            <mxPoint x="600" y="-60" as="targetPoint" />
            <Array as="points">
              <mxPoint x="270" y="-100" />
              <mxPoint x="270" y="160" />
              <mxPoint x="430" y="160" />
              <mxPoint x="430" y="400" />
            </Array>
          </mxGeometry>
        </mxCell>
        <mxCell id="eePxE5dwfhzt0HfO-NFH-22" value="" style="endArrow=none;html=1;rounded=0;exitX=0.658;exitY=1.017;exitDx=0;exitDy=0;exitPerimeter=0;" edge="1" parent="1" source="eePxE5dwfhzt0HfO-NFH-16">
          <mxGeometry width="50" height="50" relative="1" as="geometry">
            <mxPoint x="398" y="39" as="sourcePoint" />
            <mxPoint x="430" y="160" as="targetPoint" />
          </mxGeometry>
        </mxCell>
        <mxCell id="eePxE5dwfhzt0HfO-NFH-23" value="" style="endArrow=classic;html=1;rounded=0;exitX=0.5;exitY=1;exitDx=0;exitDy=0;" edge="1" parent="1" source="eePxE5dwfhzt0HfO-NFH-3" target="eePxE5dwfhzt0HfO-NFH-24">
          <mxGeometry width="50" height="50" relative="1" as="geometry">
            <mxPoint x="230" y="440" as="sourcePoint" />
            <mxPoint x="550" y="550" as="targetPoint" />
          </mxGeometry>
        </mxCell>
        <mxCell id="eePxE5dwfhzt0HfO-NFH-24" value="cadastrar opção" style="rounded=0;whiteSpace=wrap;html=1;" vertex="1" parent="1">
          <mxGeometry x="490" y="520" width="120" height="60" as="geometry" />
        </mxCell>
        <mxCell id="eePxE5dwfhzt0HfO-NFH-25" value="" style="endArrow=classic;html=1;rounded=0;exitX=0.5;exitY=1;exitDx=0;exitDy=0;" edge="1" parent="1" source="eePxE5dwfhzt0HfO-NFH-24" target="eePxE5dwfhzt0HfO-NFH-26">
          <mxGeometry width="50" height="50" relative="1" as="geometry">
            <mxPoint x="360" y="630" as="sourcePoint" />
            <mxPoint x="550" y="620" as="targetPoint" />
          </mxGeometry>
        </mxCell>
        <mxCell id="eePxE5dwfhzt0HfO-NFH-26" value="abrir modal" style="rounded=0;whiteSpace=wrap;html=1;" vertex="1" parent="1">
          <mxGeometry x="490" y="610" width="120" height="60" as="geometry" />
        </mxCell>
        <mxCell id="eePxE5dwfhzt0HfO-NFH-27" value="" style="endArrow=classic;html=1;rounded=0;exitX=0.5;exitY=1;exitDx=0;exitDy=0;" edge="1" parent="1" source="eePxE5dwfhzt0HfO-NFH-26" target="eePxE5dwfhzt0HfO-NFH-28">
          <mxGeometry width="50" height="50" relative="1" as="geometry">
            <mxPoint x="360" y="630" as="sourcePoint" />
            <mxPoint x="550" y="730" as="targetPoint" />
          </mxGeometry>
        </mxCell>
        <mxCell id="eePxE5dwfhzt0HfO-NFH-36" value="" style="edgeStyle=orthogonalEdgeStyle;rounded=0;orthogonalLoop=1;jettySize=auto;html=1;" edge="1" parent="1" source="eePxE5dwfhzt0HfO-NFH-28" target="eePxE5dwfhzt0HfO-NFH-35">
          <mxGeometry relative="1" as="geometry" />
        </mxCell>
        <mxCell id="eePxE5dwfhzt0HfO-NFH-28" value="Campos Modal" style="swimlane;fontStyle=0;childLayout=stackLayout;horizontal=1;startSize=30;horizontalStack=0;resizeParent=1;resizeParentMax=0;resizeLast=0;collapsible=1;marginBottom=0;whiteSpace=wrap;html=1;" vertex="1" parent="1">
          <mxGeometry x="480" y="720" width="140" height="120" as="geometry" />
        </mxCell>
        <mxCell id="eePxE5dwfhzt0HfO-NFH-29" value="Descricao(obrigatório)" style="text;strokeColor=none;fillColor=none;align=left;verticalAlign=middle;spacingLeft=4;spacingRight=4;overflow=hidden;points=[[0,0.5],[1,0.5]];portConstraint=eastwest;rotatable=0;whiteSpace=wrap;html=1;" vertex="1" parent="eePxE5dwfhzt0HfO-NFH-28">
          <mxGeometry y="30" width="140" height="30" as="geometry" />
        </mxCell>
        <mxCell id="eePxE5dwfhzt0HfO-NFH-30" value="nivel(obrigatório)" style="text;strokeColor=none;fillColor=none;align=left;verticalAlign=middle;spacingLeft=4;spacingRight=4;overflow=hidden;points=[[0,0.5],[1,0.5]];portConstraint=eastwest;rotatable=0;whiteSpace=wrap;html=1;" vertex="1" parent="eePxE5dwfhzt0HfO-NFH-28">
          <mxGeometry y="60" width="140" height="30" as="geometry" />
        </mxCell>
        <mxCell id="eePxE5dwfhzt0HfO-NFH-31" value="url" style="text;strokeColor=none;fillColor=none;align=left;verticalAlign=middle;spacingLeft=4;spacingRight=4;overflow=hidden;points=[[0,0.5],[1,0.5]];portConstraint=eastwest;rotatable=0;whiteSpace=wrap;html=1;" vertex="1" parent="eePxE5dwfhzt0HfO-NFH-28">
          <mxGeometry y="90" width="140" height="30" as="geometry" />
        </mxCell>
        <mxCell id="eePxE5dwfhzt0HfO-NFH-38" value="" style="edgeStyle=orthogonalEdgeStyle;rounded=0;orthogonalLoop=1;jettySize=auto;html=1;" edge="1" parent="1" source="eePxE5dwfhzt0HfO-NFH-35" target="eePxE5dwfhzt0HfO-NFH-37">
          <mxGeometry relative="1" as="geometry" />
        </mxCell>
        <mxCell id="eePxE5dwfhzt0HfO-NFH-42" value="" style="edgeStyle=orthogonalEdgeStyle;rounded=0;orthogonalLoop=1;jettySize=auto;html=1;" edge="1" parent="1" source="eePxE5dwfhzt0HfO-NFH-35" target="eePxE5dwfhzt0HfO-NFH-41">
          <mxGeometry relative="1" as="geometry" />
        </mxCell>
        <mxCell id="eePxE5dwfhzt0HfO-NFH-35" value="validacao de campos" style="rhombus;whiteSpace=wrap;html=1;fontStyle=0;startSize=30;" vertex="1" parent="1">
          <mxGeometry x="510" y="940" width="80" height="80" as="geometry" />
        </mxCell>
        <mxCell id="eePxE5dwfhzt0HfO-NFH-37" value="mensagem informando o usuario" style="whiteSpace=wrap;html=1;fontStyle=0;startSize=30;" vertex="1" parent="1">
          <mxGeometry x="330" y="950" width="120" height="60" as="geometry" />
        </mxCell>
        <mxCell id="eePxE5dwfhzt0HfO-NFH-39" value="falha" style="text;strokeColor=none;align=center;fillColor=none;html=1;verticalAlign=middle;whiteSpace=wrap;rounded=0;" vertex="1" parent="1">
          <mxGeometry x="450" y="956" width="60" height="30" as="geometry" />
        </mxCell>
        <mxCell id="eePxE5dwfhzt0HfO-NFH-40" value="" style="endArrow=classic;html=1;rounded=0;exitX=0.5;exitY=0;exitDx=0;exitDy=0;entryX=0;entryY=1;entryDx=0;entryDy=0;" edge="1" parent="1" source="eePxE5dwfhzt0HfO-NFH-37" target="eePxE5dwfhzt0HfO-NFH-3">
          <mxGeometry width="50" height="50" relative="1" as="geometry">
            <mxPoint x="360" y="890" as="sourcePoint" />
            <mxPoint x="410" y="840" as="targetPoint" />
            <Array as="points">
              <mxPoint x="390" y="580" />
            </Array>
          </mxGeometry>
        </mxCell>
        <mxCell id="eePxE5dwfhzt0HfO-NFH-44" value="" style="edgeStyle=orthogonalEdgeStyle;rounded=0;orthogonalLoop=1;jettySize=auto;html=1;" edge="1" parent="1" source="eePxE5dwfhzt0HfO-NFH-41" target="eePxE5dwfhzt0HfO-NFH-43">
          <mxGeometry relative="1" as="geometry" />
        </mxCell>
        <mxCell id="eePxE5dwfhzt0HfO-NFH-41" value="fazer requisição ajax" style="whiteSpace=wrap;html=1;fontStyle=0;startSize=30;" vertex="1" parent="1">
          <mxGeometry x="490" y="1050" width="120" height="60" as="geometry" />
        </mxCell>
        <mxCell id="eePxE5dwfhzt0HfO-NFH-46" value="" style="edgeStyle=orthogonalEdgeStyle;rounded=0;orthogonalLoop=1;jettySize=auto;html=1;" edge="1" parent="1" source="eePxE5dwfhzt0HfO-NFH-43" target="eePxE5dwfhzt0HfO-NFH-45">
          <mxGeometry relative="1" as="geometry" />
        </mxCell>
        <mxCell id="eePxE5dwfhzt0HfO-NFH-43" value="recebimento de valores e tratamento de dados" style="whiteSpace=wrap;html=1;fontStyle=0;startSize=30;" vertex="1" parent="1">
          <mxGeometry x="490" y="1140" width="120" height="60" as="geometry" />
        </mxCell>
        <mxCell id="eePxE5dwfhzt0HfO-NFH-50" value="" style="edgeStyle=orthogonalEdgeStyle;rounded=0;orthogonalLoop=1;jettySize=auto;html=1;" edge="1" parent="1" source="eePxE5dwfhzt0HfO-NFH-45" target="eePxE5dwfhzt0HfO-NFH-49">
          <mxGeometry relative="1" as="geometry" />
        </mxCell>
        <mxCell id="eePxE5dwfhzt0HfO-NFH-53" value="" style="edgeStyle=orthogonalEdgeStyle;rounded=0;orthogonalLoop=1;jettySize=auto;html=1;" edge="1" parent="1" source="eePxE5dwfhzt0HfO-NFH-45" target="eePxE5dwfhzt0HfO-NFH-52">
          <mxGeometry relative="1" as="geometry" />
        </mxCell>
        <mxCell id="eePxE5dwfhzt0HfO-NFH-45" value="execução do comando" style="rhombus;whiteSpace=wrap;html=1;fontStyle=0;startSize=30;" vertex="1" parent="1">
          <mxGeometry x="510" y="1220" width="80" height="80" as="geometry" />
        </mxCell>
        <mxCell id="eePxE5dwfhzt0HfO-NFH-49" value="passa mensagem de erro" style="whiteSpace=wrap;html=1;fontStyle=0;startSize=30;" vertex="1" parent="1">
          <mxGeometry x="650" y="1230" width="120" height="60" as="geometry" />
        </mxCell>
        <mxCell id="eePxE5dwfhzt0HfO-NFH-51" value="Erro" style="text;strokeColor=none;align=center;fillColor=none;html=1;verticalAlign=middle;whiteSpace=wrap;rounded=0;" vertex="1" parent="1">
          <mxGeometry x="590" y="1240" width="60" height="30" as="geometry" />
        </mxCell>
        <mxCell id="eePxE5dwfhzt0HfO-NFH-52" value="realiza o cadastro e informa o usuario que o cadastro foi realizado" style="whiteSpace=wrap;html=1;fontStyle=0;startSize=30;" vertex="1" parent="1">
          <mxGeometry x="330" y="1230" width="120" height="60" as="geometry" />
        </mxCell>
        <mxCell id="eePxE5dwfhzt0HfO-NFH-54" value="Sim" style="text;strokeColor=none;align=center;fillColor=none;html=1;verticalAlign=middle;whiteSpace=wrap;rounded=0;" vertex="1" parent="1">
          <mxGeometry x="460" y="1240" width="60" height="30" as="geometry" />
        </mxCell>
        <mxCell id="eePxE5dwfhzt0HfO-NFH-56" value="" style="endArrow=none;html=1;rounded=0;exitX=0.25;exitY=0;exitDx=0;exitDy=0;" edge="1" parent="1" source="eePxE5dwfhzt0HfO-NFH-52">
          <mxGeometry width="50" height="50" relative="1" as="geometry">
            <mxPoint x="550" y="920" as="sourcePoint" />
            <mxPoint x="390" y="880" as="targetPoint" />
            <Array as="points">
              <mxPoint x="360" y="1170" />
              <mxPoint x="270" y="1170" />
              <mxPoint x="270" y="880" />
            </Array>
          </mxGeometry>
        </mxCell>
        <mxCell id="eePxE5dwfhzt0HfO-NFH-57" value="" style="endArrow=classic;html=1;rounded=0;exitX=0.516;exitY=-0.001;exitDx=0;exitDy=0;entryX=0.998;entryY=0.12;entryDx=0;entryDy=0;entryPerimeter=0;exitPerimeter=0;" edge="1" parent="1" source="eePxE5dwfhzt0HfO-NFH-49" target="eePxE5dwfhzt0HfO-NFH-28">
          <mxGeometry width="50" height="50" relative="1" as="geometry">
            <mxPoint x="480" y="1100" as="sourcePoint" />
            <mxPoint x="530" y="1050" as="targetPoint" />
            <Array as="points">
              <mxPoint x="710" y="734" />
            </Array>
          </mxGeometry>
        </mxCell>
        <mxCell id="eePxE5dwfhzt0HfO-NFH-58" value="" style="endArrow=classic;html=1;rounded=0;" edge="1" parent="1" target="eePxE5dwfhzt0HfO-NFH-59">
          <mxGeometry width="50" height="50" relative="1" as="geometry">
            <mxPoint x="590" y="460" as="sourcePoint" />
            <mxPoint x="640" y="410" as="targetPoint" />
          </mxGeometry>
        </mxCell>
        <mxCell id="eePxE5dwfhzt0HfO-NFH-61" value="" style="edgeStyle=orthogonalEdgeStyle;rounded=0;orthogonalLoop=1;jettySize=auto;html=1;" edge="1" parent="1" source="eePxE5dwfhzt0HfO-NFH-59" target="eePxE5dwfhzt0HfO-NFH-60">
          <mxGeometry relative="1" as="geometry" />
        </mxCell>
        <mxCell id="eePxE5dwfhzt0HfO-NFH-59" value="editar opção" style="rounded=0;whiteSpace=wrap;html=1;" vertex="1" parent="1">
          <mxGeometry x="640" y="340" width="120" height="60" as="geometry" />
        </mxCell>
        <mxCell id="eePxE5dwfhzt0HfO-NFH-63" value="" style="edgeStyle=orthogonalEdgeStyle;rounded=0;orthogonalLoop=1;jettySize=auto;html=1;" edge="1" parent="1" source="eePxE5dwfhzt0HfO-NFH-60" target="eePxE5dwfhzt0HfO-NFH-62">
          <mxGeometry relative="1" as="geometry" />
        </mxCell>
        <mxCell id="eePxE5dwfhzt0HfO-NFH-60" value="busca informações no banco de dados" style="rounded=0;whiteSpace=wrap;html=1;" vertex="1" parent="1">
          <mxGeometry x="790" y="340" width="120" height="60" as="geometry" />
        </mxCell>
        <mxCell id="eePxE5dwfhzt0HfO-NFH-62" value="abrir o modal e preencher o modal com as informações retornadas" style="whiteSpace=wrap;html=1;rounded=0;" vertex="1" parent="1">
          <mxGeometry x="940" y="340" width="120" height="60" as="geometry" />
        </mxCell>
        <mxCell id="eePxE5dwfhzt0HfO-NFH-64" value="" style="edgeStyle=orthogonalEdgeStyle;rounded=0;orthogonalLoop=1;jettySize=auto;html=1;" edge="1" parent="1" source="eePxE5dwfhzt0HfO-NFH-66" target="eePxE5dwfhzt0HfO-NFH-67">
          <mxGeometry relative="1" as="geometry" />
        </mxCell>
        <mxCell id="eePxE5dwfhzt0HfO-NFH-65" value="" style="edgeStyle=orthogonalEdgeStyle;rounded=0;orthogonalLoop=1;jettySize=auto;html=1;" edge="1" parent="1" source="eePxE5dwfhzt0HfO-NFH-66" target="eePxE5dwfhzt0HfO-NFH-70">
          <mxGeometry relative="1" as="geometry" />
        </mxCell>
        <mxCell id="eePxE5dwfhzt0HfO-NFH-66" value="validacao de campos" style="rhombus;whiteSpace=wrap;html=1;fontStyle=0;startSize=30;" vertex="1" parent="1">
          <mxGeometry x="1120" y="440" width="80" height="80" as="geometry" />
        </mxCell>
        <mxCell id="eePxE5dwfhzt0HfO-NFH-67" value="mensagem informando o usuario" style="whiteSpace=wrap;html=1;fontStyle=0;startSize=30;" vertex="1" parent="1">
          <mxGeometry x="940" y="450" width="120" height="60" as="geometry" />
        </mxCell>
        <mxCell id="eePxE5dwfhzt0HfO-NFH-68" value="falha" style="text;strokeColor=none;align=center;fillColor=none;html=1;verticalAlign=middle;whiteSpace=wrap;rounded=0;" vertex="1" parent="1">
          <mxGeometry x="1060" y="456" width="60" height="30" as="geometry" />
        </mxCell>
        <mxCell id="eePxE5dwfhzt0HfO-NFH-69" value="" style="edgeStyle=orthogonalEdgeStyle;rounded=0;orthogonalLoop=1;jettySize=auto;html=1;" edge="1" parent="1" source="eePxE5dwfhzt0HfO-NFH-70" target="eePxE5dwfhzt0HfO-NFH-72">
          <mxGeometry relative="1" as="geometry" />
        </mxCell>
        <mxCell id="eePxE5dwfhzt0HfO-NFH-70" value="fazer requisição ajax" style="whiteSpace=wrap;html=1;fontStyle=0;startSize=30;" vertex="1" parent="1">
          <mxGeometry x="1100" y="550" width="120" height="60" as="geometry" />
        </mxCell>
        <mxCell id="eePxE5dwfhzt0HfO-NFH-71" value="" style="edgeStyle=orthogonalEdgeStyle;rounded=0;orthogonalLoop=1;jettySize=auto;html=1;" edge="1" parent="1" source="eePxE5dwfhzt0HfO-NFH-72" target="eePxE5dwfhzt0HfO-NFH-75">
          <mxGeometry relative="1" as="geometry" />
        </mxCell>
        <mxCell id="eePxE5dwfhzt0HfO-NFH-72" value="recebimento de valores e tratamento de dados" style="whiteSpace=wrap;html=1;fontStyle=0;startSize=30;" vertex="1" parent="1">
          <mxGeometry x="1100" y="640" width="120" height="60" as="geometry" />
        </mxCell>
        <mxCell id="eePxE5dwfhzt0HfO-NFH-73" value="" style="edgeStyle=orthogonalEdgeStyle;rounded=0;orthogonalLoop=1;jettySize=auto;html=1;" edge="1" parent="1" source="eePxE5dwfhzt0HfO-NFH-75" target="eePxE5dwfhzt0HfO-NFH-76">
          <mxGeometry relative="1" as="geometry" />
        </mxCell>
        <mxCell id="eePxE5dwfhzt0HfO-NFH-74" value="" style="edgeStyle=orthogonalEdgeStyle;rounded=0;orthogonalLoop=1;jettySize=auto;html=1;" edge="1" parent="1" source="eePxE5dwfhzt0HfO-NFH-75" target="eePxE5dwfhzt0HfO-NFH-78">
          <mxGeometry relative="1" as="geometry" />
        </mxCell>
        <mxCell id="eePxE5dwfhzt0HfO-NFH-75" value="execução do comando" style="rhombus;whiteSpace=wrap;html=1;fontStyle=0;startSize=30;" vertex="1" parent="1">
          <mxGeometry x="1120" y="720" width="80" height="80" as="geometry" />
        </mxCell>
        <mxCell id="eePxE5dwfhzt0HfO-NFH-76" value="passa mensagem de erro" style="whiteSpace=wrap;html=1;fontStyle=0;startSize=30;" vertex="1" parent="1">
          <mxGeometry x="1260" y="730" width="120" height="60" as="geometry" />
        </mxCell>
        <mxCell id="eePxE5dwfhzt0HfO-NFH-77" value="Erro" style="text;strokeColor=none;align=center;fillColor=none;html=1;verticalAlign=middle;whiteSpace=wrap;rounded=0;" vertex="1" parent="1">
          <mxGeometry x="1200" y="740" width="60" height="30" as="geometry" />
        </mxCell>
        <mxCell id="eePxE5dwfhzt0HfO-NFH-78" value="realiza o cadastro e informa o usuario que o cadastro foi realizado" style="whiteSpace=wrap;html=1;fontStyle=0;startSize=30;" vertex="1" parent="1">
          <mxGeometry x="940" y="730" width="120" height="60" as="geometry" />
        </mxCell>
        <mxCell id="eePxE5dwfhzt0HfO-NFH-79" value="Sim" style="text;strokeColor=none;align=center;fillColor=none;html=1;verticalAlign=middle;whiteSpace=wrap;rounded=0;" vertex="1" parent="1">
          <mxGeometry x="1070" y="740" width="60" height="30" as="geometry" />
        </mxCell>
        <mxCell id="eePxE5dwfhzt0HfO-NFH-81" value="" style="endArrow=classic;html=1;rounded=0;exitX=1;exitY=0.5;exitDx=0;exitDy=0;entryX=0.5;entryY=0;entryDx=0;entryDy=0;" edge="1" parent="1" source="eePxE5dwfhzt0HfO-NFH-62" target="eePxE5dwfhzt0HfO-NFH-66">
          <mxGeometry width="50" height="50" relative="1" as="geometry">
            <mxPoint x="1200" y="570" as="sourcePoint" />
            <mxPoint x="1250" y="520" as="targetPoint" />
            <Array as="points">
              <mxPoint x="1160" y="370" />
            </Array>
          </mxGeometry>
        </mxCell>
        <mxCell id="eePxE5dwfhzt0HfO-NFH-82" value="" style="endArrow=classic;html=1;rounded=0;exitX=0.5;exitY=0;exitDx=0;exitDy=0;entryX=0.5;entryY=0;entryDx=0;entryDy=0;" edge="1" parent="1" source="eePxE5dwfhzt0HfO-NFH-76" target="eePxE5dwfhzt0HfO-NFH-60">
          <mxGeometry width="50" height="50" relative="1" as="geometry">
            <mxPoint x="660" y="570" as="sourcePoint" />
            <mxPoint x="710" y="520" as="targetPoint" />
            <Array as="points">
              <mxPoint x="1320" y="270" />
              <mxPoint x="850" y="270" />
            </Array>
          </mxGeometry>
        </mxCell>
        <mxCell id="eePxE5dwfhzt0HfO-NFH-83" value="" style="endArrow=classic;html=1;rounded=0;exitX=0.25;exitY=0;exitDx=0;exitDy=0;" edge="1" parent="1" source="eePxE5dwfhzt0HfO-NFH-78" target="eePxE5dwfhzt0HfO-NFH-3">
          <mxGeometry width="50" height="50" relative="1" as="geometry">
            <mxPoint x="780" y="570" as="sourcePoint" />
            <mxPoint x="830" y="520" as="targetPoint" />
            <Array as="points">
              <mxPoint x="970" y="620" />
              <mxPoint x="800" y="620" />
              <mxPoint x="800" y="460" />
            </Array>
          </mxGeometry>
        </mxCell>
        <mxCell id="eePxE5dwfhzt0HfO-NFH-84" value="" style="endArrow=classic;html=1;rounded=0;exitX=0;exitY=0.5;exitDx=0;exitDy=0;entryX=0.5;entryY=1;entryDx=0;entryDy=0;" edge="1" parent="1" source="eePxE5dwfhzt0HfO-NFH-67" target="eePxE5dwfhzt0HfO-NFH-60">
          <mxGeometry width="50" height="50" relative="1" as="geometry">
            <mxPoint x="780" y="570" as="sourcePoint" />
            <mxPoint x="830" y="520" as="targetPoint" />
            <Array as="points">
              <mxPoint x="850" y="480" />
            </Array>
          </mxGeometry>
        </mxCell>
      </root>
    </mxGraphModel>
  </diagram>
</mxfile>
